<?xml version="1.0" encoding="UTF-8"?><svg preserveAspectRatio="none" id="uuid-906cb795-9e45-4ce7-b7b5-f620a7f3e0da" xmlns="http://www.w3.org/2000/svg" xmlns:xlink="http://www.w3.org/1999/xlink" viewBox="0 0 375 1200"><defs><clipPath id="uuid-901350f2-151e-48e1-9340-582ff26c11db"><rect width="375" height="1200" style="fill:none;"/></clipPath></defs><g id="uuid-c9815671-a704-4cfe-ab30-977f93571014"><g style="clip-path:url(#uuid-901350f2-151e-48e1-9340-582ff26c11db);"><g id="uuid-7f0d4d4e-c816-4ed5-8aeb-8ce5c7edc3b5"><rect x="-42.92" y="-48.24" width="442.98" height="184.71" style="fill:#2e1e73;"/><path d="M262.7,73.91C240.7-18.79,81.9-.39,26.8,13.91-106.6,50.11-71.7,160.61-34.5,234.01c39.4,78,111.9,75.1,207.2,31.4,95.2-43.7,117.5-75.6,90-191.5Z" style="fill:#ffde3b;"/><path d="M14.3,81.81C167.8,12.91,342.4,6.31,410.8,57.41c68.4,51.1,153.5,1459.7-7.4,1429.6S54.2,1614.21-4.3,1430.71C-62.8,1247.31-139.2,150.61,14.3,81.81Z" style="fill:#fff;"/><path d="M500.9,1152.31c44,8.1,323.5,118.4,415.5-37.5,65.2-110.5-160.4-168-49.6-313.7,110.7-145.7,37.1-275.9-103.8-301.9-209.9-38.7-302.8,127.1-462.9,76.7-160-50.3-152-253-407.4-221.4-147.6,18.3-404,264.8-200.1,372.1,135,71.2,128.2,174.5,91,232.5-31.6,49.2,58.5,198.9,202.4,238.2,318.5,87.2,514.9-45,514.9-45Z" style="fill:#00b380;"/></g></g></g></svg>